# xmcd
#
# Track frame offsets: 
#        150
#        13486
#        33538
#        54871
#        68160
#        79035
#        94692
#        111557
#        120942
#        134772
#        147734
#        152460
#        174944
#        183825
#        200248
#        218688
#        233475
#        244576
#        257190
#        294021
#        313230
#        321855
#        334379
#        347250
#
# Disc length: 4799 seconds
#
# Revision: 2
# Processed by: cddbd v1.5.2PL0 Copyright (c) Steve Scherf et al.
# Submitted via: ExactAudioCopy v1.0b3
#
DISCID=5e12bd18
DTITLE=Vernet, Olivier - Lachrimae Consort All'Inglese, Ph. Foulon - Co
DTITLE=rrette - Concertos pour orgue Op.26
DYEAR=2004
DGENRE=Baroque
TTITLE0=Concerto en sol majeur op.26 n° 1 – Allegro
TTITLE1=Concerto en sol majeur op.26 n° 1 – Gavota1 - Andante - Gavota 
TTITLE1=2 
TTITLE2=Concerto en sol majeur op.26 n° 1 – Allegro
TTITLE3=Les Amants enchantés (des Pièces de mon Livre de Clavecin qui 
TTITLE3=se peuvent toucher sur l'orgue)
TTITLE4=Concerto en la majeur op.26 n° 2 – Allegro
TTITLE5=Concerto en la majeur op.26 n° 2 – Adagio
TTITLE6=Concerto en la majeur op.26 n° 2 – Giga allegro
TTITLE7=Feste Sauvage (des Pièces de mon Livre de Clavecin qui se peuv
TTITLE7=ent toucher sur l'orgue)
TTITLE8=Concerto en ré majeur op.26 n° 3 – Allegro
TTITLE9=Concerto en ré majeur op.26 n° 3 – Aria andante
TTITLE10=Concerto en ré majeur op.26 n° 3 – Adagio
TTITLE11=Concerto en ré majeur op.26 n° 3 – Allegro
TTITLE12=Le Courrier (des Pièces de mon Livre de Clavecin qui se peuve
TTITLE12=nt toucher sur l'orgue)
TTITLE13=Concerto en ut majeur op.26 n° 4 – Allegro
TTITLE14=Concerto en ut majeur op.26 n° 4 – Andante aria
TTITLE15=Concerto en ut majeur op.26 n° 4 – Allegro
TTITLE16=Les Étoiles (des Pièces de mon Livre de Clavecin qui se peuve
TTITLE16=nt toucher sur l'orgue)
TTITLE17=Concerto en fa majeur op.26 n° 5 – Allegro
TTITLE18=Concerto en fa majeur op.26 n° 5 – Aria andante - Variazone
TTITLE19=Concerto en fa majeur op.26 n° 5 – Allegro
TTITLE20=Les Fanatiques (des Pièces de mon Livre de Clavecin qui se pe
TTITLE20=uvent toucher sur l'orgue)
TTITLE21=Concerto en ré mineur op.26 n° 6 – Allegro
TTITLE22=Concerto en ré mineur op.26 n° 6 – Andante
TTITLE23=Concerto en ré mineur op.26 n° 6 – Presto
EXTD=YEAR: 2004
EXTT0=
EXTT1=
EXTT2=
EXTT3=
EXTT4=
EXTT5=
EXTT6=
EXTT7=
EXTT8=
EXTT9=
EXTT10=
EXTT11=
EXTT12=
EXTT13=
EXTT14=
EXTT15=
EXTT16=
EXTT17=
EXTT18=
EXTT19=
EXTT20=
EXTT21=
EXTT22=
EXTT23=
PLAYORDER=
